<svg xmlns="http://www.w3.org/2000/svg" xmlns:xlink="http://www.w3.org/1999/xlink" version="1.1" x="0px" y="0px" viewBox="0 0 100 125" style="enable-background:new 0 0 100 100;" xml:space="preserve">
    <g>
        <path d="M75.2,92.8c0.1,0,0.2,0,0.3,0c0,0,0,0-0.1,0C75.3,92.8,75.3,92.8,75.2,92.8z"/>
        <path d="M75.4,92.8C75.4,92.8,75.4,92.8,75.4,92.8C75.4,92.8,75.4,92.8,75.4,92.8z"/>
        <path d="M3.6,71.9C3.6,71.9,3.6,72,3.6,71.9C3.6,72,3.6,71.9,3.6,71.9C3.6,71.9,3.6,71.9,3.6,71.9z"/>
        <path d="M75.4,92.8C75.4,92.8,75.4,92.8,75.4,92.8C75.4,92.8,75.4,92.8,75.4,92.8z"/>
        <path d="M97.8,60.5c3.4-4.2,1.9-8.8-1.8-12.2c1.7-2.5,2.9-5.6,2.3-8.8c-0.5-3.2-2.9-5.3-5.4-7v-0.1l-0.1-0.1   c-0.4-1.9-1.8-3.1-3.5-3.7c0.2-2.3-0.8-3.7-2.9-4.6c-0.5-5.3-5.2-7.3-9.9-8.2c-3-5-8.2-6.8-13.7-6.2c-0.2,0-1-0.7-1.2-0.8   c-0.9-0.5-1.9-0.8-3-0.9c-1.1-0.1-2.3,0.4-3.3-0.1c-0.6-0.3-1.1-0.9-1.8-1.1c-0.6-0.2-1.1-0.3-1.7-0.4c-0.5,0-1.1,0.2-1.6,0.1   c-0.5-0.1-1-0.6-1.5-0.9c-1-0.6-2.2-1.1-3.4-1.4c-2.5-0.6-5-0.1-7.1,1.4c-4.7-0.4-8.7,1.4-10.8,5.7c-1.5-0.2-3-0.1-4.4,0.6   c-1,0.5-2.7,1.8-2.7,3.1c-1.1,1-2.3,1.5-3.1,2.8c-1.2,1.8-1,3.5-0.2,5.4c-2.7,0.7-4,2.5-4.4,5.3c-0.1,0-0.1,0-0.1,0.1   c-2.1,3.6-3.2,8.2,0.7,10.9c0,0,0,0,0.1,0c0,0,0,0,0,0.1l0.1,0.1c0.5,1.2,1.3,1.9,2.2,2.7c0,0.1,0,0.3,0.1,0.4   c0.7,3.9,3.9,5.9,7.8,5.9c0.4,0.6,0.8,1.2,1.5,1.6c-3.3,4.1-7.4,7.8-11.7,11.3c-2,1.7-4.1,3.4-6.4,5c-2.1,1.5-5.3,2.3-6.4,4.8   c-1.3,2.9,0.3,6.6,1,9.4c0.8,2.9,2,5.6,3.8,8c1.7,2.1,3.8,3.9,6.2,5.1c1.7,0.8,4.2,2.1,6.2,1.9s3.6-2.2,5.1-3.3   c3.1-2.1,6.2-4.1,9.3-6.1c6.4-3.7,13.3-7.1,20.5-8.6c0.4,2.4,1.8,3.9,4,4.9c0.6,2.2,2.5,3.1,4.6,3.5c1.6,2.9,3.8,4.6,7,4.8   c1.8,2,4.6,2.3,7,1.6c4,0,8.3-0.4,10-4.7c5.3-2.3,8.3-7.4,7.4-13.2c2.9-0.7,4.6-2.7,4.5-5.7C99.9,66.4,100.5,63,97.8,60.5z    M25.1,46.2c-0.4-0.1-1.6,0.1-1.8,0c-1.3-0.1-2.5-0.5-3.4-1.6c-1-1.2-0.6-2.3-1.2-3.5c0-0.1-0.1-0.1-0.1-0.2   c0.3,0.2,0.7,0.2,1.2,0.1c1.7-0.1,3.3-0.6,4.1-2.1c0.2-0.6,0.3-1.2,0.4-1.8c1.6-0.3,3-1.2,4-2.5c0.1-0.2,0.3-0.4,0.4-0.6   c0.1,0.3,0.2,0.5,0.2,0.6c0.3,1.2,0.4,2.3,0.5,3.4c0.1,3.6-1,6.9-2.8,10C26.2,47.2,26,46.5,25.1,46.2z M67.8,80   c-2.1,1.9-2.3,3.9-0.5,6.2c0,0.7,0.1,1.4,0.2,2.1c-0.6-0.2-1.3-0.4-1.9-1.1c-0.5-0.6-1-1.4-1.4-2.1L64.1,85L64,84.9   c-1.2-1-3.9-0.6-3.9-2.5c0-0.5-0.3-0.7-0.7-1.2c-0.6-0.5-1.6-0.5-2.2-1.2c-0.8-0.7-1.1-1.6-1.1-2.7c1.5-0.2,3-0.3,4.6-0.2   c2.5,0.2,4.9,0.8,7.1,2.2c0,0,0,0,0.1,0c0,0.2,0.1,0.3,0.1,0.6C68,80,68,80,67.8,80z M67.7,76.9c0-0.3-2.8-1-3.1-1.1   c-1.1-0.3-2.3-0.5-3.5-0.6c-4.7-0.5-9.6,0.5-14.1,2c-10.5,3.6-20.6,9.4-29.4,16.2c-0.1,0-0.1,0-0.2,0C8,90.9,3,81.5,3.6,72   c0,0,0,0-0.1,0c0,0,0.1,0,0.1-0.1c0,0,0,0,0,0c0,0,0,0,0,0c7.5-5,14.8-10.4,20.9-17.1c2.4-2.6,4.7-5.2,6.1-8.5   c1.4-3.3,1.8-6.9,1.3-10.4c0-0.3-0.1-0.6-0.2-1c0.4,0,0.8-0.1,1.2-0.4c-0.7,3.2-1.2,7.3,1.7,9.2c0,2.6-1.6,5.5-3,7.5   c-1.3,1.9-2.9,3.5-4.7,4.8c-0.5,0.3-1,0.8-0.9,1.3c0.2,1.8,2.7,0.3,3.3-0.2c4.1-3.2,8.1-8.2,8.1-13.7c0,0,0,0,0-0.1   c0-2.3,0.3-4.7,0.7-7c1.1,0.5,2.1,1,3.3,1.2c-0.8,1.9-1.5,3.9-1.8,6.1c-0.2,2,0.3,3.6,2.5,3.1c0.4-0.1,0.8-0.2,1.2-0.4   c-0.9,0.6-1.6,2-2.3,2.8c-0.7,1-1.5,2-2.2,3c-0.7,1-1.4,2.1-2.1,3.1c-0.7,1.1-2,2.4-1.8,3.9c0,0.3,0.1,0.5,0.3,0.7   c0.4,0.4,1,0.3,1.5,0c1.7-1.1,2.8-3.6,3.9-5.3c2.1-3.2,4.7-6.3,7.3-9.2c0.3-0.3,0.6-0.7,1.1-1.1c-0.1,0.1,1.1,0.9,1.1,1   c0.2,0.4-0.1,1-0.3,1.4c-0.8,1.7-2.1,3-3.2,4.5c-1.4,1.9-2.8,3.8-4.3,5.6c-0.1,0.1-0.2,0.3-0.4,0.4c-1.1,1.2-2.4,2.1-3.7,3   c-0.8,0.6-1.6,1.1-2.4,1.6C34.1,63,32.4,64,30.6,65c-0.7,0.4-1.5,0.8-2.3,1.1c-0.5,0.2-1,0.2-1.4,0.5s-0.7,0.8-0.5,1.3   c0.2,0.6,1.1,0.7,1.8,0.6c0.9-0.2,1.8-0.6,2.7-1c6.1-3,11.9-7.1,16-12.7c1.8-2.7,3.7-5.3,5.8-7.9c0.5,0.2,1.2,0.3,1.7,0.4   c-0.4,0.5-0.7,1.5-1,1.9c-0.8,1.6-1.8,3.4-1.9,5.2c0.3,3.5,4.1,1.2,5.9-0.2c0.6,1.3,1.6,2.4,2.8,3.3c-0.1,0-0.3,0.1-0.5,0.2   c-0.9,0.5-1.9,0.9-2.7,1.5c-0.7,0.4-1.2,1-1.8,1.5c-0.7,0.5-1.5,0.7-2.3,0.9c-1.1,0.3-2.3,0.5-3.5,0.7c-1,0.2-2.4,0.4-3.2,1   c-1.4,1.1,1,1.8,1.9,1.6c1.6-0.3,3.2-0.7,4.7-1.2c0.8-0.2,1.6-0.5,2.4-0.8c0.5-0.2,1.4-0.8,1.9-0.8c0.1,0,0.1,0,0.2,0   c0,0,0.1,0,0.1,0c1.4,0,2.7-0.2,4-0.7c-0.6,0.5-1.3,1.1-1.6,1.8C59,66.4,65.1,66,67.6,66c-0.1,0.5-0.1,1.1-0.1,1.6   c-1.1-0.2-2.1-0.3-3.3-0.4c-4.6-0.4-9.2,0.5-13.6,1.7c-2.5,0.7-4.6,1.8-6.9,3.1c-0.6,0.4-1.9,1-1.9,1.9c0,2.2,3.7-0.2,4.4-0.7   c2.9-1.8,6.2-2.9,9.5-3.5c3-0.6,6.2-1,9.2-0.5c0.6,0.1,1.3,0.1,1.8,0.2c0.1,0.1,0.3,0.2,0.4,0.2c0,0,0,0,0.1,0h0.1   c0.1,0,0.1,0,0.2,0c0.2,0.6,0.5,1.2,0.8,1.6l0.1,0.1c-0.2,0-0.4,0-0.7,0.1c-1.1,0.4-3.5-0.1-4.4,0.9c-0.2,0.2-0.3,0.6-0.1,0.9   c0.3,0.9,1.6,1.3,2.3,1.8c0.7,0.4,1.5,0.8,2.3,1.4C67.8,76.5,67.7,76.7,67.7,76.9z M32.2,30.9c0.1-0.1,0.2-0.2,0.3-0.4   c0,0.1,0.1,0.2,0.1,0.3c-0.1,0.2-0.2,0.4-0.3,0.5C32.3,31.2,32.2,31,32.2,30.9z M35.3,37.9c0-0.5,0-1,0.1-1.5   c0-0.1,0.2-0.8,0.4-1.5C35.6,35.9,35.4,36.8,35.3,37.9z M42.2,44.4c0.1-1.5,0.5-3.1,1.1-4.5c0.5,0.8,1.3,1.6,1.9,2   C44.2,42.8,43.3,43.7,42.2,44.4z M56.8,51.8c-0.6,0.6-1.4,1.3-2.2,1.8c0.1-0.3,0.2-0.7,0.3-1.1c0.5-1.3,1.2-2.4,1.8-3.6   c0,0.6,0,1.4,0,2.2C56.7,51.5,56.7,51.5,56.8,51.8z M62.9,63.6c0.6-0.3,1.2-1,1.8-1.4c0.8,0.8,2.1,1.4,3.5,1.6   c-1.3,0.1-2.5,0.1-3.7,0C63.9,63.8,63.4,63.6,62.9,63.6z M68.1,73.7c0.7,0,1.5-0.1,2.2-0.2c0.1,0.1,0.3,0.1,0.4,0.2   c-0.4,0.2-0.8,0.5-1.2,1C69,74.3,68.5,74,68.1,73.7z M85.1,85.8c0.2,0,0.3,0,0.3,0.1C85.4,85.9,85.4,85.8,85.1,85.8z M96.3,58.1   c-0.2,0.2-0.4,0.5-0.6,0.7c-0.6,0.7-1.1,1.3-0.3,2.2c0.4,0.5,1.3,0.7,1.6,1.4c0.7,1.5,0.1,2.8-0.6,4.1c-0.4,0.7-0.6,1.4-0.8,2.1   c-0.2,0.9-0.2,1.8-0.7,2.5c-0.6,0.8-1.7,1.2-2.6,1.4c-0.6,0.1-1.2,0.1-1.5,0.7c-0.3,0.7,0.3,2.3,0.3,3.2c0,1.4-0.2,2.7-0.7,3.9   c-0.7,1.7-2,3.1-3.5,4.1c-0.7,0.5-1.5,0.9-2.2,1.3c-0.8,0.4-1.2,1.1-1.6,1.9c-1.1,2.2-3.1,2.5-5.4,2.6c-1.2,0-2.3,0.2-3.5,0.1   c-1.1-0.1-3.4-0.5-3.8-1.6c-0.3-0.8-0.3-1.7-0.3-2.6c0-0.8-0.5-1.2-0.9-1.9c-0.4-0.7-0.3-1.6,0.3-2.2c0.3-0.3,0.7-0.6,1-0.9   c0.6-0.7,0.1-1.2-0.1-1.9c-0.3-1.2,0.6-2.8,1.5-3.5c0.8-0.7,1.4-1.4,2.1-2.1c0.3-0.3,0.6-0.5,0.3-1c-0.4-0.5-1.3-0.7-1.8-1   c-2.2-1.6-2.6-4.8-1.6-7.2c0.4-0.9,1.3-2.1-0.1-2.6c-0.3-0.1-0.6-0.1-1-0.1c-1.9,0-3.3-0.2-4-2.2c-0.3-1-0.4-2.6-1.8-2.6   c0,0-0.1,0-0.1,0c-0.3-0.1-0.5-0.2-0.8-0.3c-1.2-0.4-2.5-2-2.9-3.1c-0.7-1.7-0.3-3.5,0-5.3c0.1-0.6,0.5-1.3,0.6-1.8   c0.2-1.1-0.8-1.3-1.7-1.3c0,0-0.1,0-0.2,0c-0.2,0-0.3,0-0.4,0c-1.3,0.6-3.5,0.3-4.7-0.2c-0.8-0.4-1.6-1-2.2-1.6   c-0.3-0.3-0.7-0.7-0.9-1.1c-0.2-0.3-0.3-0.7-0.6-1c0,0-0.1-0.1-0.1-0.1s-0.1-0.1-0.1-0.1c-0.7-0.5-1.5-0.2-2.2-0.3   c-0.9-0.2-1.5-1-1.6-1.9c-0.2-1.1-0.2-2.3-1.7-2.3c-1.5,0-2.9-0.7-4.1-1.4c-1-0.5-2-1.2-2.8-2c-0.9-1-1.5-2.2-1.9-3.5   c-0.2-0.7-0.2-1.4-0.3-2c0-0.6,0.2-1.4-0.3-1.8c-0.5-0.4-1.3-0.7-1.9-0.5c-0.8,0.3-0.8,1.1-1.1,1.8c-0.3,0.9-0.9,1.8-1.7,2.5   c-0.4,0.3-0.9,0.6-1.4,0.7c-0.5,0.2-1,0-1.4,0.6c-0.5,0.9-0.9,1.9-1.7,2.6c-0.8,0.8-2,1-3,1.5c-0.7,0.4-1,0.4-1.1,1.3v0.1   c0,0.5,0.1,1.4-0.3,1.8c-1.2,1.2-3.8,0.4-5.1,0c-1.1-0.4-1.8-2.1-2-3.1c-0.2-1.3,0.1-2.6,0.6-3.8c0.3-0.7,0.7-1.4,1.1-2.1   c0.1-0.2,0.2-0.4,0.1-0.6c0.1,0.2,0.6-1.7,0.6-1.8c0.2-0.7,0.7-1.4,1.3-1.8c0.6-0.4,1.7-0.3,2.4-0.5c0.5-0.2,1.1-0.2,1.1-1.1   c0-0.4-0.4-0.8-0.6-1.2c-0.7-1.6-1.1-2.8,0-4.2c0.7-1,1.7-1.6,2.6-2.4c0.6-0.5,1.1-1.2,1.7-1.7c1-0.8,2.7-0.7,3.9-0.9   c0.1,0,0.3,0,0.4,0c1.4-0.4,1.2-0.7,1.9-2c0.9-1.5,2.1-2.6,3.8-3.2c0.8-0.3,1.7-0.4,2.5-0.5c1-0.1,2.1,0.1,3-0.3   c0.5-0.2,0.9-0.6,1.4-0.9c1.9-1.3,4.4-0.3,6.2,0.8C48.7,7.2,49.3,8,50.4,8c0.3,0,0.7-0.2,1.1-0.2c1,0,1.6,0,2.4,0.7   c1,1,1.8,1.3,3.3,1.2c1-0.1,2.6-0.4,3.3,0.5c0.7,0.8,1.5,1.1,2.5,1.1c3,0,5.8-0.1,8.4,1.7c0.7,0.5,1.3,1.2,1.9,1.8   c0.5,0.7,0.9,1.5,1.5,2.1c0.8,0.6,2,0.6,3,0.9c2.3,0.6,4.8,1.9,5.7,4.2c0.6,1.7,0.1,2,1.3,3.2c0.7,0.6,1.4,1.3,2.1,1.8   c0.4,0.3-0.3,1.9,0,2.4c0.3,0.4,0.8,0.4,1.2,0.5c0.5,0.2,1.1,0.4,1.6,0.7c0.9,0.6,0.5,1.6,1.1,2.3c0.4,0.5,1.2,0.8,1.7,1.2   c0.6,0.4,1.1,0.9,1.6,1.4c1.6,1.6,2.2,3.8,1.9,6c-0.2,1.1-0.5,2.2-1,3.2c-0.4,0.8-1.3,1.6-1.4,2.5c0,0.6,0.3,1.1,0.6,1.5   c0.7,0.8,1.4,1.7,2,2.6c0.9,1.4,1.5,3,1.1,4.7C97,56.9,96.7,57.5,96.3,58.1z"/>
        <path d="M75.4,92.8c0.1,0,0.1,0.1,0.3,0.1C75.6,92.8,75.5,92.8,75.4,92.8z"/>
    </g>
</svg>