<svg xmlns="http://www.w3.org/2000/svg" viewBox="0 0 96 120" x="0px" y="0px">
<g data-name="1">
    <path d="M85.73,11.53A2,2,0,0,0,82.86,10L60.17,21.1A37.67,37.67,0,0,0,43.44,37.34,30.63,30.63,0,0,0,29.51,26l-18.72-7.6A2,2,0,0,0,9,18.53,2,2,0,0,0,8,20.12L7.11,40.3A30.62,30.62,0,0,0,26.14,70l15,6.09.14,0,1,8.31a2,2,0,0,0,1,1.53,2,2,0,0,0,1,.24,2.09,2.09,0,0,0,.88-.2L67.8,74.9A37.8,37.8,0,0,0,88.67,36.63ZM27.64,66.32A26.6,26.6,0,0,1,11.11,40.48l.8-17.35L28,29.67A26.63,26.63,0,0,1,41.23,41.38a2.08,2.08,0,0,0,.24.34A37.74,37.74,0,0,0,39.3,59.37L39.62,62l-12-18.12a2,2,0,1,0-3.33,2.21l16.39,24.7.09.81Zm38.4,5L48,80.18,67.84,45.11a2,2,0,1,0-3.48-2l-19,33.53L43.28,58.9A33.77,33.77,0,0,1,61.93,24.69L82.08,14.8l2.61,22.3A33.77,33.77,0,0,1,66,71.31Z"/>
</g>
</svg>