<svg xmlns="http://www.w3.org/2000/svg" xmlns:xlink="http://www.w3.org/1999/xlink" version="1.1" x="0px" y="0px" viewBox="0 0 128 160" style="enable-background:new 0 0 128 128;" xml:space="preserve">
    <path d="M125.995,51.369c3.197-8.039-0.902-14.14-6.617-16.882c1.545-3.799,1.684-7.312,0.408-10.455  c-2.259-5.564-8.113-7.87-8.384-7.974c-0.274-0.099-6.782-2.365-12.459,0.553c-3.042,1.563-5.237,4.299-6.536,8.141  c-1.392-0.434-2.722-0.818-4.193-0.751c-1.568-4.754-5.359-8.178-10.212-8.896L78,15c0-7.589-6.411-14-14-14S50,7.411,50,15  l-0.002,0.105c-4.853,0.718-8.645,4.142-10.212,8.897c-1.452-0.06-2.759,0.32-4.128,0.748c-1.298-3.841-3.493-6.576-6.535-8.14  c-5.677-2.918-12.185-0.65-12.482-0.545c-0.248,0.096-6.102,2.401-8.361,7.966c-1.276,3.144-1.138,6.656,0.408,10.455  c-5.714,2.742-9.813,8.843-6.617,16.882c0.54,1.359,1.392,3.16,2.546,4.586c-3.799,3.922-4.63,8.322-2.543,13.424  c1.855,4.535,6.672,8.397,11.555,9.416c-0.461,1.671-0.316,3.566,0.436,5.559c2.484,6.581,10.277,9.983,17.602,7.804  c1.518,1.711,3.463,2.995,5.482,3.633l7.884,30.46C45.146,126.691,45.544,127,46,127h7c0.314,0,0.611-0.148,0.8-0.399  c0.189-0.252,0.248-0.578,0.161-0.88l-8.654-29.77l0.047-0.015c2.161-0.816,6.122-2.853,7.476-5.375  c0.066,0.031,0.128,0.065,0.194,0.096c0.265,4.017,2.8,7.643,6.524,9.346L59,125.979c-0.005,0.27,0.097,0.529,0.286,0.721  C59.474,126.892,59.731,127,60,127h8c0.269,0,0.526-0.108,0.714-0.301c0.188-0.191,0.291-0.451,0.286-0.721l-0.547-25.975  c3.724-1.703,6.259-5.33,6.524-9.346c0.066-0.031,0.128-0.065,0.194-0.096c1.347,2.518,5.313,4.558,7.508,5.386l0.074,0.025  l-8.648,29.748c-0.087,0.302-0.028,0.628,0.161,0.88c0.189,0.251,0.485,0.399,0.8,0.399h7c0.456,0,0.854-0.309,0.968-0.749  l7.889-30.482c2.014-0.652,3.987-1.95,5.474-3.613c7.325,2.183,15.119-1.222,17.604-7.803c0.752-1.992,0.896-3.888,0.436-5.559  c4.883-1.019,9.7-4.881,11.554-9.416c2.087-5.102,1.257-9.502-2.542-13.424C124.603,54.53,125.454,52.729,125.995,51.369z   M32.783,90.377c-0.265-0.33-0.709-0.46-1.109-0.322c-6.497,2.241-13.557-0.631-15.738-6.408c-0.518-1.373-0.946-3.39-0.041-5.199  c0.146-0.294,0.14-0.641-0.018-0.928c-0.158-0.288-0.446-0.479-0.773-0.514c-4.54-0.477-9.45-4.159-11.178-8.385  c-1.884-4.604-1.008-8.382,2.756-11.89C6.881,56.546,6.996,56.288,7,56.016c0.004-0.271-0.103-0.534-0.295-0.726  c-0.997-0.989-1.957-2.601-2.775-4.659c-3.058-7.69,1.562-12.727,6.446-14.704c0.254-0.103,0.454-0.305,0.555-0.559  c0.101-0.255,0.093-0.539-0.022-0.787c-1.674-3.628-1.937-6.919-0.781-9.781c1.923-4.758,7.181-6.847,7.209-6.858  c0.059-0.021,5.957-2.078,10.873,0.448c2.782,1.43,4.743,4.083,5.83,7.885c0.073,0.257,0.246,0.474,0.48,0.603  c0.235,0.128,0.51,0.158,0.766,0.082c0.314-0.094,0.619-0.189,0.917-0.282c1.11-0.348,2.094-0.636,3.081-0.677  C39.103,26.964,39,27.963,39,29c0,1.753,0.22,3.136,0.745,4.563C35.677,36.075,33,40.954,33,46c0,4.175,1.837,8.232,4.774,10.932  l-2.794,3.494L28.96,39.721c-0.029-0.098-0.072-0.19-0.128-0.275c-1.333-2-3.023-2.093-4.16-1.511  c-1.29,0.657-2.024,2.182-1.629,3.356l3.217,12.429l-11.965-3.676c-0.525-0.165-1.088,0.134-1.25,0.662  c-0.163,0.527,0.134,1.087,0.662,1.25l13.015,4.004l0.127,0.037l4.864,18.793l-11.561-1.779c-0.542-0.085-1.056,0.29-1.14,0.836  s0.291,1.057,0.836,1.141l12.41,1.909l4.27,16.499C35.128,92.719,33.816,91.676,32.783,90.377z M46.774,125L24.968,40.749  c-0.006-0.021-0.023-0.074-0.03-0.097c-0.052-0.155,0.183-0.712,0.658-0.943c0.581-0.289,1.119,0.208,1.489,0.726L51.668,125H46.774  z M44.747,94.027l-9.089-31.266l3.686-4.592c0.133,0.09,0.264,0.183,0.401,0.268C39.22,59.864,39,61.247,39,63  c0,3.954,1.958,7.442,5.822,10.376C44.396,74.781,44,76.768,44,78c0,4.895,2.431,8.868,7.061,11.621  C50.186,91.255,47.162,93.105,44.747,94.027z M61.021,125L63,31.027c0.023-0.652,0.9-0.672,1-0.672s0.98,0.02,1,0.666L66.979,125  H61.021z M73,89.996c-0.014,3.203-1.813,6.172-4.594,7.781l-0.362-17.173l10.497-6.764c0.464-0.3,0.598-0.918,0.299-1.383  c-0.299-0.464-0.918-0.596-1.382-0.299l-9.463,6.098l-0.431-20.45c0.034-0.024,0.073-0.035,0.104-0.064l10-9  c0.411-0.369,0.444-1.002,0.074-1.412c-0.369-0.411-1.002-0.444-1.412-0.074l-8.821,7.939L67,30.969  c-0.047-1.514-1.309-2.613-3-2.613s-2.952,1.1-3,2.613c0,0.004,0,0.007,0,0.01l-0.202,9.579l-9.174-7.339  c-0.43-0.345-1.061-0.274-1.405,0.156c-0.345,0.432-0.275,1.061,0.156,1.406l10,8c0.113,0.09,0.241,0.143,0.372,0.177l-0.551,26.189  L49.6,61.2c-0.442-0.331-1.068-0.242-1.4,0.2c-0.332,0.441-0.242,1.068,0.2,1.399l11.745,8.809l-0.551,26.169  c-2.781-1.61-4.58-4.579-4.594-7.781c-0.002-0.397-0.238-0.756-0.602-0.913C48.904,86.699,46,82.867,46,78  c0-1.197,0.504-3.483,0.938-4.652c0.158-0.424,0.01-0.901-0.359-1.163C42.877,69.559,41,66.469,41,63  c0-1.817,0.256-3.105,0.915-4.596c0.213-0.483,0.015-1.049-0.454-1.292C37.596,55.106,35,50.641,35,46s2.596-9.106,6.461-11.112  c0.468-0.243,0.667-0.809,0.454-1.292C41.256,32.105,41,30.817,41,29c0-6.519,4.237-11.566,10.075-12.003  c0.265-0.02,0.511-0.145,0.684-0.346c0.173-0.201,0.259-0.464,0.238-0.729c-0.015-0.192-0.009-0.367-0.003-0.55  C51.997,15.253,52,15.13,52,15c0-6.505,5.495-12,12-12s12,5.495,12,12c0,0.13,0.003,0.253,0.006,0.373  c0.005,0.183,0.012,0.357-0.003,0.55c-0.021,0.265,0.065,0.527,0.238,0.729c0.173,0.201,0.419,0.326,0.684,0.346  C82.763,17.434,87,22.481,87,29c0,1.817-0.256,3.105-0.915,4.596c-0.213,0.483-0.015,1.049,0.454,1.292  C90.404,36.894,93,41.359,93,46s-2.596,9.106-6.461,11.112c-0.468,0.243-0.667,0.809-0.454,1.292C86.744,59.895,87,61.183,87,63  c0,3.725-2.242,7.817-5.579,10.185c-0.369,0.262-0.517,0.739-0.359,1.163l0.041,0.111C81.524,75.59,82,76.872,82,78  c0,4.867-2.904,8.699-8.398,11.083C73.238,89.24,73.002,89.599,73,89.996z M76.932,89.625C81.567,86.872,84,82.898,84,78  c0-1.265-0.392-2.51-0.804-3.646C86.744,71.55,89,67.173,89,63c0-1.753-0.22-3.136-0.745-4.563c0.051-0.032,0.1-0.068,0.15-0.1  l3.592,5.836l-8.685,29.876C80.845,93.109,77.811,91.26,76.932,89.625z M81.292,125h-4.894l24.583-84.565  c0.37-0.517,0.906-1.015,1.489-0.726c0.475,0.231,0.709,0.788,0.658,0.943c-0.012,0.032-0.022,0.064-0.031,0.097L94.046,75.72  c-0.007,0.023-0.013,0.045-0.018,0.069L81.292,125z M124.14,68.621c-1.728,4.226-6.638,7.908-11.178,8.385  c-0.327,0.034-0.615,0.226-0.773,0.514c-0.158,0.287-0.164,0.634-0.018,0.928c0.905,1.81,0.477,3.826-0.041,5.199  c-2.181,5.776-9.241,8.65-15.738,6.408c-0.398-0.139-0.844-0.009-1.109,0.322c-1,1.257-2.326,2.299-3.737,2.987l4.264-16.476  l12.407-1.899c0.546-0.083,0.921-0.594,0.837-1.14c-0.083-0.545-0.592-0.916-1.14-0.837l-11.559,1.769l4.87-18.815  c0.023-0.005,0.045-0.003,0.068-0.01l13.066-4c0.528-0.161,0.825-0.721,0.663-1.249s-0.721-0.826-1.249-0.663l-11.963,3.662  l3.213-12.415c0.395-1.175-0.34-2.699-1.629-3.356c-1.139-0.582-2.829-0.487-4.16,1.511c-0.057,0.085-0.1,0.178-0.128,0.275  L92.751,61.58l-2.742-4.455C93.072,54.428,95,50.277,95,46c0-5.046-2.677-9.925-6.745-12.437C88.78,32.136,89,30.753,89,29  c0-1.039-0.104-2.04-0.284-3.006c1.009,0.032,2.023,0.333,3.163,0.688c0.293,0.091,0.592,0.185,0.901,0.276  c0.255,0.074,0.53,0.045,0.766-0.082c0.234-0.129,0.407-0.346,0.48-0.603c1.085-3.796,3.042-6.447,5.817-7.878  c4.896-2.526,10.827-0.476,10.862-0.463c0.053,0.02,5.29,2.081,7.226,6.852c1.164,2.865,0.903,6.161-0.774,9.796  c-0.115,0.248-0.123,0.532-0.022,0.787c0.101,0.254,0.301,0.456,0.555,0.559c4.885,1.978,9.504,7.014,6.446,14.704  c-0.819,2.06-1.779,3.671-2.775,4.659c-0.193,0.191-0.3,0.453-0.296,0.726c0.004,0.272,0.119,0.53,0.318,0.716  C125.148,60.239,126.024,64.018,124.14,68.621z"/>
</svg>