<svg xmlns="http://www.w3.org/2000/svg" viewBox="0 0 512 640" x="0px" y="0px">
    <path d="M236.55,54.17a2.35,2.35,0,0,0,2.86.84,43.42,43.42,0,0,1,33.23,0,2.36,2.36,0,0,0,2.85-.84,77.67,77.67,0,0,1,21.78-21,2.36,2.36,0,0,0-.27-4.17,49.25,49.25,0,0,0-19.85-4.3,39.53,39.53,0,0,0-19.48,4.9,3.19,3.19,0,0,1-1.58.48,3.22,3.22,0,0,1-1.59-.48A39.52,39.52,0,0,0,235,24.63,49.4,49.4,0,0,0,215.08,29a2.36,2.36,0,0,0-.27,4.17A77.83,77.83,0,0,1,236.55,54.17Z"/>
    <path d="M330.53,320.42c-.58-4.12-1.14-8-1.69-11.73-3.86-26.28-6.18-42.14,1.75-61.72,2.16-5.33,9.92-20.43,9.92-20.43,20.8-35.26,40.37-70.4,35.91-129.9-2.89-38.54-27.69-56.07-51.46-58-4.16-.33-10.22-.85-16.69,1.32-9.94,3.82-23,17.45-28.87,31.51a23.87,23.87,0,0,1-2.1,4,12.63,12.63,0,0,0,2.14,16.07,102.47,102.47,0,0,1,23.92,35.16,124.66,124.66,0,0,1,8.73,33.55,5.8,5.8,0,0,1-5,6.39l-.33,0a5.79,5.79,0,0,1-6.52-5c-4-33.69-22.59-65.42-53.87-76.9A23.83,23.83,0,0,1,232.6,71.51c-3.91-9.32-8.55-17.69-15.75-23.9-3.67-3.16-8.09-7-16.91-8.6-28.47-5.09-71.19,16.11-74.57,61.36a134.29,134.29,0,0,0,3.6,43.72C133.8,163,142.41,179,151.64,193.76c7.23,11.59,23.14,36.78,23.42,37.27A135.86,135.86,0,0,1,182.91,247c7.93,19.58,5.61,35.44,1.75,61.72-.55,3.74-1.11,7.61-1.69,11.73-1.86,13.36-4.61,26.65-7.27,39.5-7.92,38.22-15.4,74.32,1.93,104.9,11.11,19.58,30.47,29.1,59.2,29.1h43.5c13,0,23.66-3.91,32.52-7.93a49.53,49.53,0,0,0,23-21.17c17.33-30.58,9.85-66.68,1.93-104.9C335.14,347.07,332.39,333.78,330.53,320.42ZM259.34,480.2a164.15,164.15,0,0,1-22.51,1.72c-23.93,0-39.78-7.18-48.76-23-20.49-36.14-.5-84.49,6.79-136.82,4.76-34.24,9.57-54-.83-79.62-2.15-5.3-7.08-14.57-8.81-17.78a.76.76,0,0,1,.68-1.11,50.44,50.44,0,0,1,5.93.53,1.67,1.67,0,0,0,1.81-2.28c-4.6-11.24-10.68-20-17-29.11-12.23-17.57-24.87-35.74-24.92-71.65a6.13,6.13,0,0,1,5.24-6.18,6,6,0,0,1,6.76,6c0,32.3,11.06,48.19,22.77,65,8.49,12.21,17.25,24.82,22.48,43.77a1.66,1.66,0,0,0,.74,1A47.66,47.66,0,0,1,220.85,240a1.66,1.66,0,0,0,2.79-.44c2-4.72,4.17-9,6.33-13.21,7.07-13.81,14.38-28.08,15.6-59.55a6,6,0,0,1,12,.47c-1.32,34.11-9.6,50.28-16.91,64.55-3.84,7.5-7.36,14.38-9.71,23.35a8.21,8.21,0,0,0,.05,4.26,178.88,178.88,0,0,1,5.91,34.73,1.56,1.56,0,0,0,2.66.95c2.29-2.38,4.53-4.4,6.69-6.35,6.95-6.28,12.94-11.69,18.76-27a6,6,0,1,1,11.21,4.27c-6.84,18-14.51,24.89-21.93,31.59-5.33,4.82-10.44,9.43-15.61,18.66a5.87,5.87,0,0,0-.75,2.86c0,8.14-.48,119.41,24,155.36A3.65,3.65,0,0,1,259.34,480.2Zm66.09-21.3c-8.51,15-23.1,22.1-45,22.1-7.43-.77-14.8-21.58-17.07-26.43-.68-1.47-.16-3.93.45-5.44,12.27-30.64,11.76-112.66,11.73-118.75a26.85,26.85,0,0,1,4.14-14.55c17.84-28.07,14.76-62.79,17-80.28,2.57-20.08,20.36-37.25,29-49.7,11.68-16.78,22.71-32.64,22.77-64.77a6.17,6.17,0,0,1,5.8-6.24,6,6,0,0,1,6.2,6c0,36.06-12.67,54.27-24.92,71.88C329.06,202,322.84,211,318.2,222.62a1.34,1.34,0,0,0,1.5,1.82c1.31-.26,2.64-.46,4-.6a2.76,2.76,0,0,1,2.76,4.07,140.39,140.39,0,0,0-7,14.55c-10.4,25.66-5.59,45.38-.83,79.62C325.93,374.41,345.92,422.76,325.43,458.9Z"/>
</svg>