<svg xmlns="http://www.w3.org/2000/svg" viewBox="0 0 128 160" fill="none" x="0px" y="0px">
    <path fill-rule="evenodd" clip-rule="evenodd" d="M113.02 7.67993L82.5861 35.2717L88.5655 10.0161C88.9573 8.36126 87.2362 7.00355 85.7181 7.76985L78.7929 11.2655C78.306 11.5113 77.9405 11.9453 77.7813 12.467L66.3185 50.0191L10.8066 100.346C7.83148 103.043 6.53174 106.877 6.93875 110.565C6.95085 110.674 6.96443 110.784 6.97955 110.893C7.11689 111.887 7.37892 112.868 7.76626 113.809L6.21542 115.36C5.43438 116.141 5.43438 117.408 6.21543 118.189L9.82356 121.797C10.6046 122.578 11.8709 122.578 12.652 121.797L14.1642 120.285C18.6813 122.206 24.1257 121.225 27.6736 117.394L68.3651 73.4546L124.483 35.4158C125.748 34.558 125.623 32.6553 124.255 31.9715L120.474 30.0804C119.864 29.775 119.14 29.8022 118.554 30.1524L95.9609 43.6564L122.884 14.5842C123.757 13.642 123.528 12.1334 122.415 11.4923L115.362 7.42869C114.61 6.99522 113.664 7.09673 113.02 7.67993ZM121.417 13.2253L114.364 9.16165L81.7723 38.7091L76.2619 61.9841L121.417 13.2253ZM42.4099 98.537L73.5009 64.9648L86.6193 9.55528L79.6941 13.0509L68.2313 50.603C68.126 50.9482 67.9292 51.2584 67.6618 51.5008L12.1499 101.828C11.9151 102.041 11.6928 102.262 11.4831 102.491C23.2744 105.024 33.559 102.725 42.4099 98.537ZM8.73248 115.672L9.18075 115.223C9.75146 114.653 9.92321 113.795 9.61619 113.048C8.44621 110.204 8.64936 106.936 10.1933 104.252C21.0335 106.776 30.659 105.368 39.0728 102.141L26.2063 116.034C23.2522 119.224 18.7159 120.047 14.9477 118.444C14.1969 118.124 13.3274 118.293 12.7505 118.87L12.3205 119.3C11.6346 118.852 10.9841 118.327 10.3812 117.724C9.74493 117.088 9.19548 116.399 8.73248 115.672ZM8.73248 115.672C9.19548 116.399 9.74493 117.088 10.3812 117.724C10.9841 118.327 11.6346 118.852 12.3205 119.3L11.2378 120.383L7.62964 116.774L8.73248 115.672ZM123.361 33.7603L74.3759 66.9641L91.1278 48.8752L119.58 31.8691L123.361 33.7603Z" fill="black"/>
</svg>